# xmcd
#
# Track frame offsets: 
#        182
#        12057
#        23270
#        35682
#        47345
#        58295
#        72507
#        83757
#        96095
#        107382
#        120507
#        132057
#        143570
#        155345
#        166970
#        179645
#        192732
#        203512
#        216045
#        230120
#        240995
#        250895
#        264432
#        275457
#        287795
#        299907
#        311232
#        322370
#
# Disc length: 4461 seconds
#
# Revision: 2
# Processed by: cddbd v1.4PL0 Copyright (c) Steve Scherf et al.
# Submitted via: ExactAudioCopy v0.90b3
#
DISCID=9d116b1c
DTITLE=Jim Reeves - Welcome To My World - Disc 09
DYEAR=1900
DGENRE=Country
TTITLE0=Have You Ever Been Lonely (1962)
TTITLE1=There's Always Me (1962)
TTITLE2=All Dressed Up And Lonely (1962)
TTITLE3=Welcome To My World (1962)
TTITLE4=Be Honest With Me (1962)
TTITLE5=I Fall To Pieces (1962)
TTITLE6=Just Walking In The Rain (1962)
TTITLE7=Blue Skies (1962)
TTITLE8=I'm A Fool To Care (1962)
TTITLE9=It's No Sin (1962)
TTITLE10=Am I That Easy To Forget (1962)
TTITLE11=Adios Amigo (1962)
TTITLE12=I'll Fly Away (1962)
TTITLE13=Where Do I Go From Here (1962)
TTITLE14=This World Is Not My Home (1962)
TTITLE15=Oh, Gentle Shepherd (1962)
TTITLE16=Where We'll Never Grow Old (1962)
TTITLE17=I'd Rather Have Jesus (1962)
TTITLE18=Have Thine Own Way, Lord (1962)
TTITLE19=The Night Watch (1962)
TTITLE20=Across The Bridge (1962)
TTITLE21=My Cathedral (1962)
TTITLE22=Take My Hand Precious Lord (1962)
TTITLE23=We Thank Thee (1962)
TTITLE24=I Catch Myself Crying (1967)
TTITLE25=That's When I See The Blues (In Your Pretty Brown Eyes) (1994
TTITLE25=)
TTITLE26=Where Do I Go To Throw A Picture Away (1965)
TTITLE27=A Letter To My Heart (1962)
EXTD=
EXTT0=
EXTT1=
EXTT2=
EXTT3=
EXTT4=
EXTT5=
EXTT6=
EXTT7=
EXTT8=
EXTT9=
EXTT10=
EXTT11=
EXTT12=
EXTT13=
EXTT14=
EXTT15=
EXTT16=
EXTT17=
EXTT18=
EXTT19=
EXTT20=
EXTT21=
EXTT22=
EXTT23=
EXTT24=
EXTT25=
EXTT26=
EXTT27=
PLAYORDER=
